<svg width="512" height="512" viewBox="0 0 512 512" xmlns="http://www.w3.org/2000/svg">
  <defs>
    <!-- Modern gradient -->
    <linearGradient id="iconGradient" x1="0%" y1="0%" x2="100%" y2="100%">
      <stop offset="0%" style="stop-color:#667EEA;stop-opacity:1" />
      <stop offset="50%" style="stop-color:#764BA2;stop-opacity:1" />
      <stop offset="100%" style="stop-color:#F093FB;stop-opacity:1" />
    </linearGradient>
    
    <!-- Accent gradient -->
    <linearGradient id="iconAccent" x1="0%" y1="0%" x2="100%" y2="100%">
      <stop offset="0%" style="stop-color:#06B6D4;stop-opacity:1" />
      <stop offset="100%" style="stop-color:#3B82F6;stop-opacity:1" />
    </linearGradient>
    
    <!-- Soft shadow -->
    <filter id="iconShadow" x="-20%" y="-20%" width="140%" height="140%">
      <feDropShadow dx="0" dy="4" stdDeviation="12" flood-color="#000000" flood-opacity="0.1"/>
    </filter>
  </defs>
  
  <!-- Background with rounded square -->
  <rect width="512" height="512" rx="100" fill="url(#iconGradient)" filter="url(#iconShadow)"/>
  
  <!-- Main chat bubble - centered and prominent -->
  <g transform="translate(256, 220)">
    <!-- Primary bubble -->
    <path d="M-90 -50 Q-90 -70 -70 -70 L70 -70 Q90 -70 90 -50 L90 30 Q90 50 70 50 L-20 50 L-40 70 L-30 50 L-70 50 Q-90 50 -90 30 Z" 
          fill="#FFFFFF" 
          opacity="0.95"/>
    
    <!-- Inner design element -->
    <ellipse cx="0" cy="-10" rx="60" ry="30" fill="url(#iconAccent)" opacity="0.7"/>
    
    <!-- Geometric pattern -->
    <circle cx="-35" cy="-10" r="8" fill="#FFFFFF"/>
    <circle cx="0" cy="-10" r="12" fill="#FFFFFF"/>
    <circle cx="35" cy="-10" r="8" fill="#FFFFFF"/>
  </g>
  
  <!-- Secondary element -->
  <g transform="translate(350, 350)">
    <!-- Small bubble -->
    <path d="M-25 -15 Q-25 -25 -15 -25 L15 -25 Q25 -25 25 -15 L25 5 Q25 15 15 15 L-5 15 L-15 25 L-10 15 L-15 15 Q-25 15 -25 5 Z" 
          fill="#FFFFFF" 
          opacity="0.8"/>
    
    <!-- Accent dot -->
    <circle cx="0" cy="-5" r="5" fill="url(#iconAccent)"/>
  </g>
  
  <!-- Abstract connection -->
  <path d="M300 270 Q320 300 330 330" stroke="#FFFFFF" stroke-width="4" fill="none" stroke-linecap="round" opacity="0.6"/>
  
  <!-- Corner accents -->
  <circle cx="100" cy="100" r="6" fill="#FFFFFF" opacity="0.3"/>
  <circle cx="412" cy="100" r="4" fill="#FFFFFF" opacity="0.3"/>
  <circle cx="100" cy="412" r="4" fill="#FFFFFF" opacity="0.3"/>
</svg>
