<svg width="512" height="512" viewBox="0 0 512 512" xmlns="http://www.w3.org/2000/svg">
  <defs>
    <!-- Sophisticated gradient -->
    <linearGradient id="abstractGradient" x1="0%" y1="0%" x2="100%" y2="100%">
      <stop offset="0%" style="stop-color:#4F46E5;stop-opacity:1" />
      <stop offset="30%" style="stop-color:#7C3AED;stop-opacity:1" />
      <stop offset="70%" style="stop-color:#EC4899;stop-opacity:1" />
      <stop offset="100%" style="stop-color:#F59E0B;stop-opacity:1" />
    </linearGradient>
    
    <!-- Radial gradient for depth -->
    <radialGradient id="radialGradient" cx="50%" cy="30%" r="70%">
      <stop offset="0%" style="stop-color:#FFFFFF;stop-opacity:0.3" />
      <stop offset="100%" style="stop-color:#FFFFFF;stop-opacity:0" />
    </radialGradient>
    
    <!-- Premium shadow -->
    <filter id="premiumShadow" x="-30%" y="-30%" width="160%" height="160%">
      <feDropShadow dx="0" dy="12" stdDeviation="24" flood-color="#000000" flood-opacity="0.2"/>
    </filter>
  </defs>
  
  <!-- Background -->
  <rect width="512" height="512" rx="120" fill="url(#abstractGradient)" filter="url(#premiumShadow)"/>
  
  <!-- Overlay for depth -->
  <rect width="512" height="512" rx="120" fill="url(#radialGradient)"/>
  
  <!-- Abstract chat representation - flowing organic shapes -->
  <g transform="translate(256, 256)">
    <!-- Main flowing shape -->
    <path d="M-80 -60 Q-120 -40 -100 0 Q-80 40 -40 50 Q0 60 40 40 Q80 20 90 -20 Q100 -60 60 -80 Q20 -100 -20 -90 Q-60 -80 -80 -60 Z" 
          fill="#FFFFFF" 
          opacity="0.9"/>
    
    <!-- Inner flowing element -->
    <path d="M-50 -30 Q-70 -10 -50 20 Q-30 50 10 40 Q50 30 60 -10 Q70 -50 30 -60 Q-10 -70 -50 -30 Z" 
          fill="#FFFFFF" 
          opacity="0.6"/>
    
    <!-- Central focal points -->
    <circle cx="-20" cy="-10" r="12" fill="#FFFFFF" opacity="0.8"/>
    <circle cx="20" cy="10" r="8" fill="#FFFFFF" opacity="0.9"/>
    <circle cx="0" cy="-30" r="6" fill="#FFFFFF"/>
  </g>
  
  <!-- Floating abstract elements -->
  <g opacity="0.4">
    <!-- Organic shapes around the main element -->
    <path d="M150 180 Q130 160 150 140 Q170 120 190 140 Q210 160 190 180 Q170 200 150 180 Z" fill="#FFFFFF"/>
    
    <path d="M350 320 Q330 300 350 280 Q370 260 390 280 Q410 300 390 320 Q370 340 350 320 Z" fill="#FFFFFF"/>
    
    <path d="M180 350 Q160 330 180 310 Q200 290 220 310 Q240 330 220 350 Q200 370 180 350 Z" fill="#FFFFFF"/>
    
    <path d="M320 180 Q300 160 320 140 Q340 120 360 140 Q380 160 360 180 Q340 200 320 180 Z" fill="#FFFFFF"/>
  </g>
  
  <!-- Subtle connecting elements -->
  <g opacity="0.2">
    <path d="M200 200 Q230 230 260 200" stroke="#FFFFFF" stroke-width="2" fill="none"/>
    <path d="M260 300 Q290 270 320 300" stroke="#FFFFFF" stroke-width="2" fill="none"/>
    <path d="M200 300 Q170 270 200 240" stroke="#FFFFFF" stroke-width="2" fill="none"/>
  </g>
</svg>
