<svg width="512" height="512" viewBox="0 0 512 512" xmlns="http://www.w3.org/2000/svg">
  <defs>
    <!-- Modern gradient -->
    <linearGradient id="primaryGradient" x1="0%" y1="0%" x2="100%" y2="100%">
      <stop offset="0%" style="stop-color:#667EEA;stop-opacity:1" />
      <stop offset="50%" style="stop-color:#764BA2;stop-opacity:1" />
      <stop offset="100%" style="stop-color:#F093FB;stop-opacity:1" />
    </linearGradient>
    
    <!-- Secondary gradient -->
    <linearGradient id="secondaryGradient" x1="0%" y1="0%" x2="100%" y2="100%">
      <stop offset="0%" style="stop-color:#4F46E5;stop-opacity:1" />
      <stop offset="100%" style="stop-color:#7C3AED;stop-opacity:1" />
    </linearGradient>
    
    <!-- Accent gradient -->
    <linearGradient id="accentGradient" x1="0%" y1="0%" x2="100%" y2="100%">
      <stop offset="0%" style="stop-color:#06B6D4;stop-opacity:1" />
      <stop offset="100%" style="stop-color:#3B82F6;stop-opacity:1" />
    </linearGradient>
    
    <!-- Subtle shadow -->
    <filter id="softShadow" x="-50%" y="-50%" width="200%" height="200%">
      <feDropShadow dx="0" dy="8" stdDeviation="20" flood-color="#000000" flood-opacity="0.15"/>
    </filter>
    
    <!-- Inner glow -->
    <filter id="innerGlow" x="-50%" y="-50%" width="200%" height="200%">
      <feGaussianBlur stdDeviation="3" result="coloredBlur"/>
      <feMerge> 
        <feMergeNode in="coloredBlur"/>
        <feMergeNode in="SourceGraphic"/>
      </feMerge>
    </filter>
  </defs>
  
  <!-- Background circle with gradient -->
  <circle cx="256" cy="256" r="230" fill="url(#primaryGradient)" filter="url(#softShadow)"/>
  
  <!-- Main geometric chat bubble - modern angular design -->
  <g transform="translate(256, 200)">
    <!-- Primary bubble with modern shape -->
    <path d="M-80 -40 Q-80 -60 -60 -60 L60 -60 Q80 -60 80 -40 L80 20 Q80 40 60 40 L20 40 L0 60 L10 40 L-60 40 Q-80 40 -80 20 Z" 
          fill="#FFFFFF" 
          opacity="0.95"
          filter="url(#innerGlow)"/>
    
    <!-- Inner accent shape -->
    <ellipse cx="0" cy="-10" rx="50" ry="25" fill="url(#secondaryGradient)" opacity="0.8"/>
    
    <!-- Geometric dots pattern -->
    <circle cx="-30" cy="-10" r="6" fill="url(#accentGradient)"/>
    <circle cx="0" cy="-10" r="8" fill="url(#accentGradient)"/>
    <circle cx="30" cy="-10" r="6" fill="url(#accentGradient)"/>
  </g>
  
  <!-- Secondary floating element -->
  <g transform="translate(320, 320)">
    <!-- Smaller geometric shape -->
    <path d="M-30 -20 Q-30 -35 -15 -35 L15 -35 Q30 -35 30 -20 L30 5 Q30 20 15 20 L-5 20 L-15 30 L-10 20 L-15 20 Q-30 20 -30 5 Z" 
          fill="#FFFFFF" 
          opacity="0.85"
          filter="url(#innerGlow)"/>
    
    <!-- Small accent -->
    <circle cx="0" cy="-7" r="4" fill="url(#accentGradient)" opacity="0.9"/>
  </g>
  
  <!-- Abstract connection lines -->
  <g opacity="0.6">
    <path d="M200 240 Q240 260 280 300" stroke="#FFFFFF" stroke-width="3" fill="none" stroke-linecap="round"/>
    <path d="M180 280 Q220 300 260 340" stroke="#FFFFFF" stroke-width="2" fill="none" stroke-linecap="round"/>
  </g>
  
  <!-- Floating geometric accents -->
  <g opacity="0.4">
    <!-- Triangle -->
    <path d="M150 150 L170 120 L190 150 Z" fill="#FFFFFF"/>
    
    <!-- Diamond -->
    <path d="M380 180 L390 170 L400 180 L390 190 Z" fill="#FFFFFF"/>
    
    <!-- Small circle -->
    <circle cx="380" cy="380" r="8" fill="#FFFFFF"/>
    
    <!-- Hexagon -->
    <path d="M120 380 L130 375 L140 380 L140 390 L130 395 L120 390 Z" fill="#FFFFFF"/>
  </g>
  
  <!-- Central focal point -->
  <circle cx="256" cy="256" r="4" fill="#FFFFFF" opacity="0.8"/>
</svg>
