<svg width="512" height="512" viewBox="0 0 512 512" xmlns="http://www.w3.org/2000/svg">
  <defs>
    <!-- Tech gradient -->
    <linearGradient id="techGradient" x1="0%" y1="0%" x2="100%" y2="100%">
      <stop offset="0%" style="stop-color:#0EA5E9;stop-opacity:1" />
      <stop offset="50%" style="stop-color:#3B82F6;stop-opacity:1" />
      <stop offset="100%" style="stop-color:#6366F1;stop-opacity:1" />
    </linearGradient>
    
    <!-- Neon glow effect -->
    <filter id="neonGlow" x="-50%" y="-50%" width="200%" height="200%">
      <feGaussianBlur stdDeviation="4" result="coloredBlur"/>
      <feMerge> 
        <feMergeNode in="coloredBlur"/>
        <feMergeNode in="SourceGraphic"/>
      </feMerge>
    </filter>
    
    <!-- Sharp shadow -->
    <filter id="sharpShadow" x="-20%" y="-20%" width="140%" height="140%">
      <feDropShadow dx="0" dy="6" stdDeviation="0" flood-color="#000000" flood-opacity="0.3"/>
    </filter>
  </defs>
  
  <!-- Background -->
  <rect width="512" height="512" rx="80" fill="url(#techGradient)"/>
  
  <!-- Main hexagonal chat bubble -->
  <g transform="translate(256, 200)">
    <!-- Hexagonal shape -->
    <path d="M-60 -35 L-30 -70 L30 -70 L60 -35 L60 35 L30 70 L-30 70 L-60 35 Z" 
          fill="#FFFFFF" 
          opacity="0.95"
          filter="url(#neonGlow)"/>
    
    <!-- Inner tech pattern -->
    <g opacity="0.7">
      <!-- Circuit-like lines -->
      <path d="M-40 -20 L-20 -20 L-20 0 L20 0 L20 20 L40 20" stroke="#3B82F6" stroke-width="3" fill="none"/>
      <path d="M-40 20 L-20 20 L-20 0" stroke="#6366F1" stroke-width="2" fill="none"/>
      <path d="M20 -20 L40 -20" stroke="#0EA5E9" stroke-width="2" fill="none"/>
      
      <!-- Tech nodes -->
      <circle cx="-20" cy="-20" r="4" fill="#3B82F6"/>
      <circle cx="20" cy="0" r="5" fill="#6366F1"/>
      <circle cx="-20" cy="20" r="3" fill="#0EA5E9"/>
      <circle cx="40" cy="20" r="4" fill="#3B82F6"/>
    </g>
  </g>
  
  <!-- Secondary tech element -->
  <g transform="translate(350, 320)">
    <!-- Diamond shape -->
    <path d="M0 -25 L25 0 L0 25 L-25 0 Z" 
          fill="#FFFFFF" 
          opacity="0.8"
          filter="url(#neonGlow)"/>
    
    <!-- Inner pattern -->
    <circle cx="0" cy="0" r="6" fill="#0EA5E9"/>
    <circle cx="0" cy="0" r="3" fill="#FFFFFF"/>
  </g>
  
  <!-- Network connections -->
  <g opacity="0.6">
    <path d="M300 240 L330 300" stroke="#FFFFFF" stroke-width="2" fill="none" stroke-dasharray="5,5"/>
    <path d="M280 280 Q300 300 320 320" stroke="#FFFFFF" stroke-width="2" fill="none"/>
  </g>
  
  <!-- Tech corner elements -->
  <g opacity="0.4">
    <!-- Corner brackets -->
    <path d="M80 80 L80 100 L100 100" stroke="#FFFFFF" stroke-width="3" fill="none"/>
    <path d="M432 80 L432 100 L412 100" stroke="#FFFFFF" stroke-width="3" fill="none"/>
    <path d="M80 432 L80 412 L100 412" stroke="#FFFFFF" stroke-width="3" fill="none"/>
    <path d="M432 432 L432 412 L412 412" stroke="#FFFFFF" stroke-width="3" fill="none"/>
    
    <!-- Small tech indicators -->
    <rect x="120" y="120" width="8" height="8" fill="#FFFFFF"/>
    <rect x="384" y="120" width="6" height="6" fill="#FFFFFF"/>
    <rect x="120" y="384" width="6" height="6" fill="#FFFFFF"/>
    <rect x="384" y="384" width="8" height="8" fill="#FFFFFF"/>
  </g>
</svg>
